<svg xmlns="http://www.w3.org/2000/svg" viewBox="410.30 244.14 138.93 52.56" role="img" aria-label="DGO"><path fill="currentColor" fill-rule="evenodd" d="M 523.289062 295.984375 C 511.132812 295.984375 500.90625 287.605469 498.117188 276.289062 L 511.460938 276.289062 C 513.710938 280.605469 518.210938 283.546875 523.429688 283.546875 C 530.867188 283.546875 536.886719 277.519531 536.886719 270.089844 C 536.886719 262.652344 530.867188 256.59375 523.429688 256.59375 C 518.210938 256.59375 513.710938 259.53125 511.460938 263.839844 L 498.117188 263.839844 C 500.90625 252.523438 511.132812 244.144531 523.289062 244.144531 C 537.617188 244.144531 549.222656 255.753906 549.222656 270.089844 C 549.222656 284.417969 537.617188 295.984375 523.289062 295.984375 Z M 523.289062 295.984375  M 436.320312 256.753906 L 422.722656 256.753906 L 422.722656 296.671875 L 410.296875 296.671875 L 410.296875 244.144531 L 436.320312 244.144531 C 450.566406 244.214844 462.125 255.945312 462.125 270.429688 C 462.125 284.875 450.566406 296.632812 436.320312 296.671875 L 436.320312 284.066406 C 443.75 284.066406 449.796875 277.957031 449.796875 270.429688 C 449.796875 262.890625 443.75 256.753906 436.320312 256.753906 Z M 436.210938 296.703125 L 436.171875 296.671875 L 436.210938 296.671875 Z M 436.210938 296.703125  M 466.074219 270.539062 L 466.074219 256.753906 L 479.761719 256.753906 L 479.761719 244.144531 L 453.488281 244.144531 L 453.488281 270.539062 C 453.554688 284.984375 465.261719 296.703125 479.691406 296.703125 C 494.144531 296.703125 505.851562 284.984375 505.921875 270.539062 L 505.773438 270.539062 L 505.921875 270.390625 L 505.921875 270.429688 L 505.921875 270.390625 L 506.035156 264.101562 L 479.761719 264.101562 L 479.761719 276.707031 L 491.867188 276.707031 C 489.597656 281.15625 485.007812 284.207031 479.691406 284.207031 C 472.160156 284.207031 466.074219 278.066406 466.074219 270.539062 Z M 466.074219 270.539062 "/></svg>